<svg width="54" height="61" viewBox="0 0 54 61" fill="none" xmlns="http://www.w3.org/2000/svg">
  <path d="M49.7743 22.2939H48.3333V15.3415C48.3321 15.2973 48.3278 15.2533 48.3205 15.2097C48.3228 14.9301 48.2239 14.6591 48.0421 14.4467L36.4731 1.23472L36.4646 1.22622C36.3177 1.06679 36.1304 0.950025 35.9226 0.88827L35.8589 0.867015C35.7706 0.844997 35.6799 0.833581 35.5889 0.833008H7.15647C5.8578 0.833008 4.80357 1.88937 4.80357 3.18591V22.2939H3.3625C1.50483 22.2939 0 23.7988 0 25.6564V43.1448C0 45.0004 1.50696 46.5073 3.3625 46.5073H4.80357V58.4801C4.80357 59.7766 5.8578 60.833 7.15647 60.833H45.9804C47.2769 60.833 48.3333 59.7766 48.3333 58.4801V46.5073H49.7743C51.632 46.5073 53.1368 45.0004 53.1368 43.1448V25.6564C53.1368 23.7988 51.6299 22.2939 49.7743 22.2939ZM7.15647 3.18591H34.4114V15.2246C34.4114 15.875 34.9385 16.4 35.5889 16.4H45.9825V22.2939H7.15647V3.18591ZM36.0417 34.4941C36.0417 37.8566 34.8174 40.1777 33.1191 41.6102C31.27 43.1469 28.4558 43.8781 25.0147 43.8781C22.9551 43.8781 21.497 43.7463 20.5044 43.6188V26.3621C21.9646 26.1283 23.8669 25.9986 25.8755 25.9986C29.2104 25.9986 31.3741 26.598 33.0681 27.8754C34.8939 29.2293 36.0417 31.3931 36.0417 34.4941ZM5.35832 43.6974V26.3621C6.58259 26.1538 8.30422 25.9986 10.7273 25.9986C13.1779 25.9986 14.9251 26.4683 16.0962 27.4057C17.2163 28.292 17.9709 29.7522 17.9709 31.4717C17.9709 33.1933 17.3991 34.6514 16.3555 35.6419C14.9995 36.9193 12.993 37.4932 10.6465 37.4932C10.1258 37.4932 9.65603 37.4677 9.29257 37.4145V43.6974H5.35832ZM45.9804 57.8425H7.15647V46.5073H45.9804V57.8425ZM49.3896 29.3866H42.637V33.4016H48.9454V36.6345H42.637V43.6974H38.6517V26.1283H49.3896V29.3866Z" fill="#A3050D"/>
</svg>
