<?xml version="1.0" encoding="utf-8"?><!-- Uploaded to: SVG Repo, www.svgrepo.com, Generator: SVG Repo Mixer Tools -->
<svg width="800px" height="800px" viewBox="0 0 24 24" fill="none" xmlns="http://www.w3.org/2000/svg">
<path d="M12 21.75C17.3848 21.75 21.75 17.3848 21.75 12C21.75 6.61522 17.3848 2.25 12 2.25C6.61522 2.25 2.25 6.61522 2.25 12C2.25 17.3848 6.61522 21.75 12 21.75Z" stroke="#3A52EE" stroke-width="1.5" stroke-miterlimit="10" stroke-linecap="round" stroke-linejoin="round"/>
<path d="M12 12C13.2416 12 14.248 10.9926 14.248 9.75C14.248 8.50736 13.2416 7.5 12 7.5C10.7584 7.5 9.75197 8.50736 9.75197 9.75C9.75197 10.9926 10.7584 12 12 12Z" stroke="#3A52EE" stroke-width="1.5" stroke-miterlimit="10" stroke-linecap="round" stroke-linejoin="round"/>
<path d="M14.9974 14.25C16.6528 14.25 17.9737 15.7453 16.8057 16.9195C15.703 18.0281 13.9431 18.75 12 18.75C10.0569 18.75 8.29702 18.0281 7.19428 16.9195C6.02632 15.7453 7.34722 14.25 9.00262 14.25L14.9974 14.25Z" stroke="#3A52EE" stroke-width="1.5" stroke-miterlimit="10" stroke-linecap="round" stroke-linejoin="round"/>
</svg>