<svg width="80" height="80" viewBox="0 0 80 80" fill="none" xmlns="http://www.w3.org/2000/svg">
<path id="Vector" fill-rule="evenodd" clip-rule="evenodd" d="M0 40C0 29.3913 4.21427 19.2172 11.7157 11.7157C19.2172 4.21427 29.3913 0 40 0C50.6087 0 60.7828 4.21427 68.2843 11.7157C75.7857 19.2172 80 29.3913 80 40C80 50.6087 75.7857 60.7828 68.2843 68.2843C60.7828 75.7857 50.6087 80 40 80C29.3913 80 19.2172 75.7857 11.7157 68.2843C4.21427 60.7828 0 50.6087 0 40ZM40 5.73758C33.359 5.73781 26.8612 7.66802 21.2971 11.2934C15.7329 14.9188 11.3423 20.083 8.65934 26.158C5.97637 32.2329 5.11669 38.9566 6.1849 45.5111C7.2531 52.0656 10.2031 58.1685 14.6761 63.0772C17.3917 58.8238 21.1355 55.3235 25.5617 52.8998C29.9879 50.4761 34.9537 49.2072 40 49.2103C45.0464 49.2066 50.0124 50.4753 54.4387 52.899C58.865 55.3228 62.6087 58.8234 65.3239 63.0772C69.7969 58.1685 72.7469 52.0656 73.8151 45.5111C74.8833 38.9566 74.0236 32.2329 71.3407 26.158C68.6577 20.083 64.2671 14.9188 58.7029 11.2934C53.1388 7.66802 46.641 5.73781 40 5.73758ZM61.0297 67.0512C58.8925 63.3678 55.8248 60.3108 52.1338 58.1865C48.4429 56.0623 44.2585 54.9455 40 54.9479C35.7415 54.9455 31.5571 56.0623 27.8662 58.1865C24.1752 60.3108 21.1075 63.3678 18.9703 67.0512C24.9782 71.7359 32.3815 74.2745 40 74.2624C47.9239 74.2624 55.2197 71.5688 61.0297 67.0512ZM25.807 33.9906C25.807 30.2264 27.3024 26.6164 29.9641 23.9547C32.6258 21.293 36.2358 19.7977 40 19.7977C43.7642 19.7977 47.3742 21.293 50.0359 23.9547C52.6976 26.6164 54.193 30.2264 54.193 33.9906C54.193 37.7548 52.6976 41.3649 50.0359 44.0266C47.3742 46.6883 43.7642 48.1836 40 48.1836C36.2358 48.1836 32.6258 46.6883 29.9641 44.0266C27.3024 41.3649 25.807 37.7548 25.807 33.9906ZM40 25.5353C38.8896 25.5353 37.7901 25.754 36.7643 26.1789C35.7384 26.6038 34.8063 27.2266 34.0211 28.0118C33.236 28.7969 32.6132 29.729 32.1882 30.7549C31.7633 31.7808 31.5446 32.8803 31.5446 33.9906C31.5446 35.101 31.7633 36.2005 32.1882 37.2264C32.6132 38.2522 33.236 39.1843 34.0211 39.9695C34.8063 40.7547 35.7384 41.3775 36.7643 41.8024C37.7901 42.2273 38.8896 42.446 40 42.446C42.2425 42.446 44.3932 41.5552 45.9789 39.9695C47.5645 38.3838 48.4554 36.2331 48.4554 33.9906C48.4554 31.7481 47.5645 29.5975 45.9789 28.0118C44.3932 26.4261 42.2425 25.5353 40 25.5353Z" fill="#247E00"/>
</svg>
